<svg width="23" height="28" viewBox="0 0 23 28" fill="none" xmlns="http://www.w3.org/2000/svg">
<path d="M12.0134 0.785645H11.9208C7.54752 0.785645 3.5377 4.01602 3.14868 8.29276C3.12274 8.5987 3.10505 8.91133 3.09363 9.2481L3.07765 10.0355L3.07449 10.7414L3.09401 10.6609C2.91353 11.5569 2.49758 12.3879 1.88916 13.0669L1.80197 13.1811C1.28103 13.9867 0.981708 14.9193 0.935377 15.8821L0.934279 16.197C0.907683 17.4634 1.33397 18.7166 2.13592 19.7119C3.22344 20.8809 4.6312 21.5782 6.14214 21.7261C10.0065 22.1534 13.9162 22.1534 17.7913 21.725C19.2919 21.5844 20.7039 20.885 21.7458 19.7593C22.5326 18.8011 22.9619 17.6513 22.9987 16.4608L23 15.9278C22.9569 14.9226 22.6557 13.9892 22.1285 13.187L22.0484 13.0824L21.8528 12.8481C21.4132 12.2892 21.0922 11.6454 20.9096 10.9567L20.8517 10.7094L20.8397 10.4501C20.8362 10.3335 20.8344 10.2042 20.8338 10.0426L20.8336 9.15316C20.8307 8.81291 20.8207 8.57096 20.7977 8.29858C20.3954 4.01376 16.3844 0.785645 12.0134 0.785645Z" fill="#999999"/>
<path d="M11.9199 2.63H12.0125C15.514 2.63 18.7082 5.20076 19.015 8.46807C19.0332 8.68257 19.0412 8.8872 19.0437 9.19121L19.0472 10.3866C19.0511 10.5778 19.0584 10.7368 19.0711 10.9157L19.0878 11.0382L19.172 11.4026C19.4216 12.3667 19.8699 13.266 20.487 14.0414L20.6659 14.2551L20.6462 14.2216C20.9884 14.7423 21.1834 15.3466 21.2107 15.9698L21.2098 16.1858C21.2304 17.0527 20.9481 17.8765 20.4138 18.5288C19.7079 19.289 18.6987 19.7889 17.6139 19.8906C13.8513 20.3065 10.0695 20.3065 6.32129 19.8921C5.22462 19.7846 4.21473 19.2844 3.46818 18.4844C2.98424 17.8799 2.70492 17.0588 2.72246 16.2173L2.72267 15.9283L2.74534 15.6766C2.79996 15.2554 2.93818 14.8285 3.15244 14.4355L3.26682 14.2428L3.20287 14.3183C4.03101 13.394 4.59846 12.2603 4.84505 11.0362L4.86372 10.8488L4.87219 9.63402L4.89304 9.0177C4.90249 8.82329 4.91459 8.63855 4.92977 8.4595C5.22619 5.20091 8.41743 2.63 11.9199 2.63Z" fill="#999999"/>
<path d="M14.0918 24.3026C14.4015 23.9058 14.9647 23.843 15.3496 24.1621C15.7346 24.4813 15.7956 25.0617 15.4859 25.4584C15.2569 25.7517 14.9924 26.0143 14.712 26.2294C13.7675 26.9839 12.5667 27.326 11.3742 27.1814C10.1806 27.0367 9.09179 26.416 8.34877 25.455C8.04088 25.0567 8.10457 24.4767 8.49102 24.1594C8.87746 23.8421 9.44033 23.9078 9.74822 24.306C10.1963 24.8856 10.8567 25.2621 11.5833 25.3502C12.3108 25.4384 13.0427 25.2299 13.6292 24.7616C13.8021 24.6288 13.9575 24.4745 14.0918 24.3026Z" fill="#999999"/>
</svg>
