<svg width="176" height="40" viewBox="0 0 176 40" fill="none" xmlns="http://www.w3.org/2000/svg">
<path d="M19.5786 0C8.94592 0 0.325195 8.77481 0.325195 19.6005C0.325195 30.4262 8.94462 39.201 19.5786 39.201C30.2126 39.201 38.832 30.4262 38.832 19.6005C38.832 8.77481 30.2126 0 19.5786 0ZM14.6379 7.56047C13.1222 8.21272 11.76 9.14734 10.5906 10.3391C9.42124 11.5296 8.50317 12.9163 7.86117 14.4594C7.19834 16.0556 6.86106 17.7538 6.86106 19.5037C6.86106 21.2536 7.19704 22.9505 7.86117 24.548C8.21668 25.4031 7.82341 26.3894 6.98347 26.7513C6.77381 26.8415 6.55504 26.8839 6.34147 26.8839C5.69817 26.8839 5.08613 26.4981 4.82048 25.8578C3.98445 23.8441 3.55992 21.707 3.55992 19.5037C3.55992 17.3004 3.98445 15.1634 4.82048 13.1496C5.62786 11.2061 6.78423 9.4602 8.25574 7.96216C9.72726 6.46412 11.4423 5.28689 13.3513 4.46496C15.3294 3.61386 17.4286 3.18168 19.5929 3.18168C21.7572 3.18168 23.8564 3.61386 25.8345 4.46496C26.6744 4.82688 27.0677 5.8132 26.7122 6.66827C26.3567 7.52335 25.3878 7.92371 24.5479 7.5618C22.98 6.88702 21.3118 6.54366 19.5929 6.54366C17.874 6.54366 16.2071 6.88569 14.6379 7.5618V7.56047ZM30.9301 31.0439C29.4586 32.542 27.7435 33.7192 25.8345 34.5411C25.6248 34.6313 25.406 34.6737 25.1925 34.6737C24.5492 34.6737 23.9371 34.2879 23.6715 33.6476C23.316 32.7925 23.7092 31.8062 24.5492 31.4443C26.065 30.7921 27.4271 29.8574 28.5965 28.6656C29.7659 27.4751 30.684 26.0885 31.326 24.5453C31.6815 23.6903 32.649 23.2899 33.4903 23.6518C34.3302 24.0137 34.7235 25.0001 34.368 25.8551C33.5606 27.7986 32.4042 29.5446 30.9327 31.0426L30.9301 31.0439Z" fill="white"/>
<path d="M59.3691 13.2289C57.8578 13.2289 56.3983 13.5503 55.073 14.1688V8.15538C55.073 6.65204 53.9011 5.5625 52.286 5.5625C50.6709 5.5625 49.499 6.65424 49.499 8.15538V30.5779C49.499 32.1429 50.6968 33.3226 52.286 33.3226C53.2395 33.3226 53.8643 32.9551 54.2643 32.5523C55.7389 33.4371 57.4859 33.8993 59.3691 33.8993C61.9269 33.8993 64.3181 32.9925 66.1062 31.3483C67.5354 30.032 69.2391 27.6152 69.2391 23.5784C69.2391 16.7815 64.2749 13.2267 59.3691 13.2267V13.2289ZM59.3691 18.9033C60.3766 18.9033 63.6652 19.2401 63.6652 23.5806C63.6652 27.9212 60.3766 28.2293 59.3691 28.2293C58.3615 28.2293 55.073 27.8948 55.073 23.5806C55.073 19.2665 58.3615 18.9033 59.3691 18.9033ZM54.6989 31.9778C54.6989 31.9778 54.6989 31.9756 54.7011 31.9734C54.7011 31.9734 54.6989 31.9778 54.6967 31.9778H54.6989Z" fill="white"/>
<path d="M88.7188 13.8079C87.1296 13.8079 85.9318 14.948 85.9318 16.4624V23.6115C85.9318 27.0166 83.7135 28.2294 81.6357 28.2294C80.6281 28.2294 77.3396 27.8948 77.3396 23.5807V16.4602C77.3396 14.9458 76.1417 13.8057 74.5526 13.8057C72.9634 13.8057 71.7656 14.9458 71.7656 16.4602V23.5807C71.7656 27.6175 73.4694 30.0343 74.8985 31.3506C76.6866 32.997 79.0779 33.9016 81.6357 33.9016C83.5145 33.9016 85.2594 33.4394 86.7318 32.559C87.2312 33.0564 87.9101 33.3227 88.7188 33.3227C90.256 33.3227 91.5057 32.0505 91.5057 30.4855V16.4602C91.5057 14.9458 90.3079 13.8057 88.7188 13.8057V13.8079Z" fill="white"/>
<path d="M105.157 13.2289C103.645 13.2289 102.186 13.5503 100.861 14.1688V8.15538C100.861 6.65204 99.6887 5.5625 98.0736 5.5625C96.4585 5.5625 95.2866 6.65424 95.2866 8.15538V30.5779C95.2866 32.1429 96.4844 33.3226 98.0736 33.3226C99.0271 33.3226 99.6519 32.9551 100.052 32.5523C101.526 33.4371 103.273 33.8993 105.157 33.8993C107.714 33.8993 110.106 32.9925 111.894 31.3483C113.323 30.032 115.027 27.6152 115.027 23.5784C115.027 16.7815 110.063 13.2267 105.157 13.2267V13.2289ZM105.157 18.9033C106.164 18.9033 109.453 19.2401 109.453 23.5806C109.453 27.9212 106.164 28.2293 105.157 28.2293C104.149 28.2293 100.861 27.8948 100.861 23.5806C100.861 19.2665 104.149 18.9033 105.157 18.9033ZM100.487 31.9778C100.487 31.9778 100.487 31.9756 100.489 31.9734C100.489 31.9734 100.487 31.9778 100.484 31.9778H100.487Z" fill="white"/>
<path d="M127.84 13.2289C126.328 13.2289 124.869 13.5503 123.544 14.1688V8.15538C123.544 6.65204 122.372 5.5625 120.757 5.5625C119.142 5.5625 117.97 6.65424 117.97 8.15538V30.5779C117.97 32.1429 119.168 33.3226 120.757 33.3226C121.71 33.3226 122.335 32.9551 122.735 32.5523C124.21 33.4371 125.957 33.8993 127.84 33.8993C130.398 33.8993 132.789 32.9925 134.577 31.3483C136.006 30.032 137.71 27.6152 137.71 23.5784C137.71 16.7815 132.746 13.2267 127.84 13.2267V13.2289ZM127.84 18.9033C128.847 18.9033 132.136 19.2401 132.136 23.5806C132.136 27.9212 128.847 28.2293 127.84 28.2293C126.832 28.2293 123.544 27.8948 123.544 23.5806C123.544 19.2665 126.832 18.9033 127.84 18.9033ZM123.17 31.9778C123.17 31.9778 123.17 31.9756 123.172 31.9734C123.172 31.9734 123.17 31.9778 123.167 31.9778H123.17Z" fill="white"/>
<path d="M150.166 28.2293C149.158 28.2293 145.87 27.8926 145.87 23.552V8.21701C145.87 6.67845 144.698 5.5625 143.083 5.5625C141.468 5.5625 140.296 6.67845 140.296 8.21701V23.552C140.296 30.349 145.26 33.9037 150.166 33.9037C151.645 33.9037 152.804 32.6579 152.804 31.0665C152.804 29.4751 151.645 28.2293 150.166 28.2293Z" fill="white"/>
<path d="M156.367 14.7572C154.395 16.78 153.329 19.4962 153.366 22.4104C153.405 25.4171 154.646 28.3071 156.864 30.5478C158.806 32.5112 161.567 33.6624 164.44 33.7086C167.424 33.757 170.172 32.6499 172.178 30.5941C173.765 28.9675 174.777 26.9337 175.138 24.7392C175.424 22.9937 173.912 21.486 172.196 21.7677C171.117 21.946 170.278 22.8022 170.081 23.8984C169.889 24.9659 169.378 25.9762 168.598 26.7752C167.484 27.9175 166.012 28.4546 164.468 28.3622C163.664 28.3137 163.296 27.3166 163.863 26.7356L171.791 18.6091C172.861 17.513 172.855 15.7411 171.778 14.6538C167.456 10.2824 160.684 10.3286 156.365 14.7572H156.367ZM160.734 23.2116C159.969 23.9974 158.62 23.4801 158.6 22.3752C158.574 20.852 159.171 19.3685 160.118 18.4C161.184 17.3061 162.611 16.7558 164.021 16.7712C165.128 16.7822 165.681 18.1403 164.901 18.9415L160.734 23.2116Z" fill="white"/>
</svg>
