<svg width="12" height="14" viewBox="0 0 12 14" fill="none" xmlns="http://www.w3.org/2000/svg">
<path fill-rule="evenodd" clip-rule="evenodd" d="M2.91567 13.2488C3.15389 13.2903 3.407 13.3114 3.67371 13.3114H8.67444C10.7595 13.3114 11.9998 12.025 11.9998 9.87858V3.56391V3.51316C11.9804 1.39641 10.7434 0.131104 8.67444 0.131104H3.67371C1.80677 0.131104 0.61242 1.1618 0.386497 2.93125C0.360603 3.13291 0.347656 3.3438 0.347656 3.56391V9.87858C0.347656 11.7001 1.2397 12.8969 2.77455 13.2218L2.91567 13.2488ZM8.96161 9.5115C8.96161 9.2479 8.75511 9.03438 8.50006 9.03438H3.83206C3.577 9.03438 3.36985 9.2479 3.36985 9.5115C3.36985 9.77511 3.577 9.98863 3.83206 9.98863H8.50006C8.75511 9.98863 8.96161 9.77511 8.96161 9.5115ZM8.49839 6.24105C8.67641 6.22128 8.85055 6.30827 8.94571 6.46445C9.04087 6.62196 9.04087 6.82098 8.94571 6.97848C8.85055 7.13467 8.67641 7.22166 8.49839 7.20189H3.8304C3.59347 7.17421 3.41416 6.96794 3.41416 6.72147C3.41416 6.475 3.59347 6.26807 3.8304 6.24105H8.49839ZM6.03045 3.93417C6.03045 3.6877 5.85113 3.48077 5.61421 3.45375H3.83854C3.60097 3.48077 3.42165 3.6877 3.42165 3.93417C3.42165 4.17999 3.60097 4.38692 3.83854 4.41394H5.61421C5.85113 4.38692 6.03045 4.17999 6.03045 3.93417Z" fill="#999999"/>
</svg>
