<svg width="26" height="26" viewBox="0 0 26 26" fill="none" xmlns="http://www.w3.org/2000/svg">
<path fill-rule="evenodd" clip-rule="evenodd" d="M26 13C26 20.1797 20.1797 26 13 26C5.8203 26 0 20.1797 0 13C0 5.8203 5.8203 0 13 0C20.1797 0 26 5.8203 26 13ZM12.9431 6.60315C13.8247 6.60315 14.5393 7.33069 14.5393 8.22815V11.6765H17.9286C18.8101 11.6765 19.5248 12.4041 19.5248 13.3015C19.5248 14.199 18.8101 14.9265 17.9286 14.9265H14.5393V18.3744C14.5393 19.2718 13.8247 19.9994 12.9431 19.9994C12.0615 19.9994 11.3469 19.2718 11.3469 18.3744V14.9265H7.96202C7.08045 14.9265 6.36579 14.199 6.36579 13.3015C6.36579 12.4041 7.08045 11.6765 7.96202 11.6765H11.3469V8.22815C11.3469 7.33069 12.0615 6.60315 12.9431 6.60315Z" fill="#999999"/>
</svg>
