<svg width="27" height="23" viewBox="0 0 27 23" fill="none" xmlns="http://www.w3.org/2000/svg">
<path fill-rule="evenodd" clip-rule="evenodd" d="M23.0289 0C24.0757 0 25.0768 0.424387 25.8162 1.17374C26.5777 1.94387 27 2.99148 27 4.08065V18.9194C27 20.0085 26.5777 21.0561 25.8162 21.8263C25.0768 22.5756 24.0757 23 23.0289 23H3.97108C2.92431 23 1.92323 22.5756 1.18385 21.8263C0.422308 21.0561 0 20.0085 0 18.9194V4.08065C0 2.99148 0.422308 1.94387 1.18385 1.17374C1.92323 0.424387 2.92431 0 3.97108 0H23.0289ZM6.57692 14.8387C6.57692 15.453 7.04215 15.9516 7.61538 15.9516C8.18861 15.9516 8.65385 15.453 8.65385 14.8387V12.9839H10.7308V14.8387C10.7308 15.453 11.196 15.9516 11.7692 15.9516C12.3425 15.9516 12.8077 15.453 12.8077 14.8387V10.3871C12.8077 8.54265 11.4134 7.04839 9.69231 7.04839C7.97123 7.04839 6.57692 8.54265 6.57692 10.3871V14.8387ZM10.7308 10.7581H8.65385V10.3871C8.65385 9.77277 9.11908 9.27419 9.69231 9.27419C10.2655 9.27419 10.7308 9.77277 10.7308 10.3871V10.7581ZM14.1923 14.8387C14.1923 15.453 14.6575 15.9516 15.2308 15.9516H17.3077C19.0288 15.9516 20.4231 14.4574 20.4231 12.6129V10.3871C20.4231 8.54265 19.0288 7.04839 17.3077 7.04839H15.2308C14.6575 7.04839 14.1923 7.54697 14.1923 8.16129V14.8387ZM16.2692 13.7258V9.27419H17.3077C17.8809 9.27419 18.3462 9.77277 18.3462 10.3871V12.6129C18.3462 13.2272 17.8809 13.7258 17.3077 13.7258H16.2692Z" fill="#999999"/>
</svg>
