<svg width="22" height="28" viewBox="0 0 22 28" fill="none" xmlns="http://www.w3.org/2000/svg">
<path d="M11.3807 0.477051C7.48324 0.477051 4.32373 3.70723 4.32373 7.69186C4.32373 11.6765 7.48324 14.9067 11.3807 14.9067C15.2781 14.9067 18.4377 11.6765 18.4377 7.69186C18.4377 3.70723 15.2781 0.477051 11.3807 0.477051Z" fill="#999999"/>
<path d="M8.49052 17.8147C7.45743 17.8877 6.41317 18.0379 5.38314 18.2626C3.39508 18.6795 1.8046 19.5124 1.12765 20.8966C0.872325 21.438 0.743955 22.0176 0.746121 22.6044C0.745355 23.187 0.872686 23.7673 1.11886 24.2982C1.76886 25.6665 3.17408 26.4408 5.07157 26.87L5.41148 26.9423C6.41354 27.1724 7.45811 27.3274 8.50967 27.4001C8.59923 27.4268 8.81269 27.4517 9.04566 27.4638L9.23729 27.4711C9.33582 27.4734 9.44765 27.474 9.61426 27.474C11.1257 27.5587 12.6926 27.534 14.2523 27.3988C15.0834 27.341 15.9201 27.2303 16.7499 27.0682L17.3707 26.937C19.4197 26.5255 20.9539 25.7429 21.6261 24.2998C22.1244 23.2283 22.1244 21.985 21.6263 20.914C20.9558 19.4745 19.4411 18.6985 17.3551 18.261C16.5367 18.0831 15.7051 17.9515 14.8675 17.8675L14.2552 17.8147C12.3373 17.6425 10.4084 17.6425 8.49052 17.8147Z" fill="#999999"/>
</svg>
